SILVERTORRENT Clean Verified Torrents Download
   
http://silvertorrent.org/

--------------------------------------------------
 
http://www.imdb.com/title/tt1864526/

Moving.Day.2012.DVDRip.XviD-PROJECT X

Source: R1 Retail DVD9

Format : AVI
Format/Info : Audio Video Interleave
File size : 701 MiB
Duration : 1h 34mn
Overall bit rate : 1 032 Kbps


Video
ID : 0
Format : MPEG-4 Visual
Format profile : Advanced Simple@L5
Format settings, BVOP : 2
Format settings, QPel : No
Format settings, GMC : No warppoints
Format settings, Matrix : Default (H.263)
Muxing mode : Packed bitstream
Codec ID : XVID
Codec ID/Hint : XviD
Duration : 1h 34mn
Bit rate : 895 Kbps
Width : 640 pixels
Height : 272 pixels
Display aspect ratio : 2.35:1
Frame rate : 23.976 fps
Color space : YUV
Chroma subsampling : 4:2:0
Bit depth : 8 bits
Scan type : Progressive
Compression mode : Lossy
Bits/(Pixel*Frame) : 0.214
Stream size : 607 MiB (87%)
Writing library : XviD 64

Audio
ID : 1
Format : MPEG Audio
Format version : Version 1
Format profile : Layer 3
Mode : Joint stereo
Mode extension : MS Stereo
Codec ID : 55
Codec ID/Hint : MP3
Duration : 1h 34mn
Bit rate mode : Constant
Bit rate : 128 Kbps
Channel(s) : 2 channels
Sampling rate : 48.0 KHz
Compression mode : Lossy
Stream size : 86.9 MiB (12%)
Alignment : Split accross interleaves
Interleave, duration : 42 ms (1.00 video frame)
Interleave, preload duration : 500 ms
Writing library : LAME3.99.5

SCREENS: 
http://lookpic.com/O/i2/1373/Zue7NytT.png 
http://lookpic.com/O/i2/795/iyaTR71.png 
http://lookpic.com/O/i2/1887/7ggCbK4i.png 
http://lookpic.com/O/i2/299/dOiYy8A3.png

Cheep SeedBox: http://www.secureboxes.net/?r=st
 